<svg width="20" height="16" viewBox="0 0 20 16" fill="none" xmlns="http://www.w3.org/2000/svg">
<path fill-rule="evenodd" clip-rule="evenodd" d="M5.15283 11.1895L11.7364 15.5008C12.4809 15.5349 13.2259 15.5685 13.9705 15.6026C14.2964 15.6228 14.5055 15.4833 14.6316 15.3529L16.0459 12.2466L15.7222 9.57325C15.6929 9.12784 14.8736 8.36876 14.8443 7.92336C14.8227 7.65805 14.5284 7.20573 14.2061 6.84876C14.0397 6.66452 13.7994 6.52404 13.7247 6.40935L12.9435 6.36743L5.15283 11.1895Z" fill="#FEFEFE"/>
<path fill-rule="evenodd" clip-rule="evenodd" d="M0.00596002 6.63415L0.00412617 8.48579C0.00550156 8.79071 0.0394278 9.03852 0.0440125 9.34988C0.0458463 9.48668 0.0265909 9.65803 0.0816064 9.76213C0.286539 10.149 0.595544 10.0887 0.997157 10.2264L1.13836 10.3066C1.18925 10.3365 1.22501 10.3545 1.28232 10.3886C1.38181 10.4475 1.51155 10.471 1.62113 10.5189C1.75454 10.5765 1.83064 10.5825 1.91408 10.6801C2.01265 10.7957 2.0177 10.8211 2.08647 10.9583C2.19604 11.1776 2.3698 11.3052 2.48166 11.4871C2.72786 11.8892 2.49358 12.3798 2.77141 12.5529C2.87548 12.6179 2.97222 12.6515 3.09508 12.7017C3.20007 12.7446 3.29222 12.8054 3.34907 12.8979C3.51825 13.1734 3.59573 13.1734 3.97809 13.0559C4.23712 12.9762 4.50944 13.0928 4.74326 13.1619C5.25536 13.3129 5.41491 13.1499 6.01641 13.7169L6.41344 14.2231C6.69356 14.6395 6.78296 14.6395 7.2969 14.7141C7.9007 14.8016 8.31148 14.4907 8.91023 14.8831L10.0321 15.6077C10.6318 15.9342 11.2915 15.6146 11.8077 15.8394C12.0723 15.9545 12.3652 15.9983 12.7169 15.9983C12.9731 15.9983 13.6287 16.0254 13.819 15.867C13.8791 15.8168 13.9524 15.6855 13.9698 15.6031C13.676 15.5916 12.6513 15.522 12.4193 15.4082C12.2286 15.3147 11.8361 15.2516 11.7605 15.0287C11.9641 14.7565 12.2955 14.7556 12.2955 13.856C12.2955 13.4815 12.2245 13.3037 12.1387 13.0232C12.0557 12.7519 11.865 12.5147 12.0099 12.2388C12.1644 11.9449 12.4409 11.8261 12.6788 11.6561C12.9232 11.482 13.2138 11.3438 13.4871 11.2167C13.6026 11.1628 13.7369 11.1177 13.8451 11.0587L14.4086 10.7451C14.4141 10.7418 14.4292 10.7326 14.4343 10.7294L14.7951 10.5152C15.2114 10.2531 15.2682 10.2471 15.0912 9.76489L15.0101 9.57282C14.9344 9.6069 14.5645 9.9086 14.2697 10.0707L14.2435 10.0859C13.9763 10.2389 13.7209 10.3899 13.4233 10.4926C13.3142 10.5304 13.2225 10.5631 13.1286 10.611C12.6852 10.8386 11.9122 11.1716 11.6931 11.6773C11.6459 11.7856 11.5955 11.8676 11.5858 12.0039C11.5487 12.541 11.7986 12.8371 11.9398 13.3166C11.9902 13.4884 11.9783 13.8159 11.8361 13.9582L11.805 13.9891C11.5634 14.2263 11.1888 14.3138 10.8532 14.247C10.7235 14.2213 10.6102 14.2272 10.4892 14.1853C10.4314 14.1655 10.381 14.1724 10.3159 14.1499C10.1733 14.1001 9.97203 14.0665 9.82441 14.0034L9.54291 13.8809C9.50486 13.8634 9.45076 13.8343 9.40491 13.8145L9.2495 13.7427C9.0033 13.6423 8.66083 13.4636 8.4559 13.283C8.38208 13.2181 8.28856 13.1434 8.31698 12.996C8.54896 12.8975 9.01568 12.909 9.18073 12.4424C9.27471 12.1766 9.2472 11.8574 9.35769 11.5691C9.39437 11.4737 9.44984 11.4143 9.50853 11.3535C9.73363 11.1218 10.193 10.9049 10.5185 10.7851C10.5685 10.7667 10.6139 10.7626 10.6666 10.7441C10.7047 10.7312 10.7675 10.716 10.806 10.6999C11.0613 10.5921 11.7137 10.4231 12.0195 10.3153L12.4789 10.1384C12.6618 10.0546 12.8604 9.99289 13.0217 9.88557C13.0992 9.83444 13.1762 9.81003 13.2578 9.76996L13.5765 9.57512C13.5801 9.57282 13.5856 9.56959 13.5893 9.56729C13.7434 9.47195 13.891 9.34482 14.0198 9.21999C14.0643 9.17716 14.0294 9.20664 14.0725 9.17301C14.2238 9.0551 14.5237 8.75064 14.5594 8.56455C14.5759 8.4798 14.5195 8.36281 14.4819 8.2951C14.443 8.22462 14.4022 8.12053 14.3339 8.0717C14.2669 8.10625 14.1885 8.23476 14.133 8.30661C13.847 8.67694 12.9332 9.29369 12.4409 9.44247C12.2222 9.50833 12.0269 9.60921 11.8068 9.66678L11.2268 9.84826C11.1585 9.87221 11.2163 9.8607 11.1439 9.88373L10.7308 10.0053C10.6524 10.0238 10.6836 10.0201 10.6354 10.0362C10.1751 10.191 10.1916 10.1472 9.6965 10.4125C8.61086 10.9938 9.2362 11.6465 8.71951 12.043C8.47332 12.2319 8.12213 12.2632 7.82047 12.2453L7.45003 12.1785C7.37897 12.1573 7.362 12.1518 7.27031 12.1356C7.14515 12.1135 7.04841 12.0661 6.93196 12.0384L5.94856 11.6898C5.26316 11.3664 5.55199 11.2655 5.91418 11.0587C6.10077 10.9523 6.30891 10.827 6.47671 10.675C6.59912 10.5645 6.72886 10.4309 6.87557 10.3153C7.21484 10.0472 7.61553 9.89018 8.03228 9.79161L8.63011 9.63546C8.68696 9.62164 8.74289 9.62441 8.79974 9.61335C8.85384 9.60322 8.87722 9.58479 8.93728 9.57144L9.27563 9.51018C9.36044 9.50281 9.36778 9.50787 9.43334 9.4853C9.53924 9.44938 9.64102 9.4526 9.74968 9.41391L10.806 9.17439C10.9426 9.1486 11.0999 9.08089 11.2356 9.03898L12.0672 8.72116C12.406 8.56639 12.7471 8.34807 12.986 8.12145C13.1739 7.94319 13.3504 7.67927 13.3931 7.39784C13.4142 7.25965 13.4307 7.22235 13.4307 7.04824C13.4307 6.83405 13.3527 6.62862 13.355 6.45452C13.6219 6.47248 14.1097 6.77095 14.2674 6.99158C14.2963 7.03211 14.3054 7.05008 14.3302 7.09384C14.4104 7.23616 14.4164 7.45772 14.5397 7.54109C14.6264 7.59958 14.6415 7.64841 14.757 7.67742C14.7616 7.21129 14.5787 7.05975 14.5906 6.93677C14.6222 6.93723 14.7859 6.98882 14.8295 7.00218C15.1449 7.09982 15.2577 7.24998 15.5052 7.36007C15.502 7.26979 15.464 7.10627 15.442 7.02705C15.3883 6.83498 14.9876 6.73917 14.7914 6.70186L14.316 6.58947L13.6787 6.24586L13.3789 6.1542C12.8746 6.05195 13.1221 5.96904 12.4491 5.69313C11.9696 5.49646 12.119 5.73827 11.5661 5.40572L11.3676 5.29932C11.0957 5.19107 10.8124 5.21364 10.6941 5.08836C10.5864 4.97413 10.3787 4.84147 10.2146 4.79035C10.1013 4.75488 10.0367 4.7231 9.92114 4.69638C9.51724 4.60288 9.71575 4.74797 9.37328 4.46147C9.32835 4.4237 9.31551 4.41541 9.23849 4.39146C9.14542 4.36244 9.18164 4.35692 9.10966 4.31822C8.89602 4.20446 8.20282 4.11095 8.16798 4.08976C8.07996 4.03633 8.07262 3.95158 7.94379 3.90414C7.86402 3.87466 7.88007 3.88157 7.81221 3.84795L7.53163 3.73786C7.24097 3.67015 7.01815 3.60336 6.69219 3.57343C6.48588 3.23258 6.07326 3.175 5.68403 3.1294C5.60288 3.12019 5.06969 3.0488 5.04355 3.03221C4.89455 2.93963 5.05226 2.92996 4.575 2.75815C4.45305 2.7144 4.47827 2.70058 4.30084 2.69136C4.15918 2.68446 4.09224 2.65636 3.97304 2.64807C3.73464 2.63103 3.51275 2.59924 3.29773 2.59049C2.70814 2.56562 2.89657 2.67985 2.60132 2.93549L2.56969 2.96404C2.49358 3.02945 2.39822 3.07597 2.30332 3.11328C2.19741 3.15473 2.19466 3.17915 2.10114 3.21553C1.86228 3.30858 1.50284 3.36615 1.48038 3.69503C1.45058 4.12984 1.14799 3.95803 0.892169 4.40666C0.855951 4.46976 0.859618 4.46239 0.848157 4.5407C0.802311 4.85391 0.766092 4.81199 0.56391 4.98196C0.161379 5.31958 0.392903 5.4702 0.240235 5.76453C0.145791 5.94647 0 6.03076 0 6.26613C0 6.38957 0.00550156 6.51347 0.0050431 6.63738L0.00596002 6.63415Z" fill="#040404"/>
<path fill-rule="evenodd" clip-rule="evenodd" d="M10.3491 0.614522C10.3546 0.699734 10.4138 0.726449 10.4724 0.783564C10.6462 0.953067 10.8534 1.06499 11.0657 1.17646C11.1363 1.21331 11.1835 1.24878 11.2835 1.26582C11.4027 1.28609 11.4247 1.30865 11.5457 1.33122C11.846 1.38696 12.1413 1.24739 12.415 1.38512C12.6965 1.52652 13.0082 1.63569 13.2819 1.80887C13.4149 1.8927 13.5666 1.95627 13.6987 2.04931L14.2383 2.47215C14.7105 2.86965 14.9613 3.08567 15.3908 3.57806C15.7003 3.93273 15.9616 4.33391 16.2023 4.73602C16.2427 4.80373 16.2693 4.88296 16.3091 4.95942L16.7222 5.83549C16.7956 6.09297 16.8891 6.28642 16.9528 6.57292L17.0784 7.08281C17.1353 7.31496 17.1912 7.70417 17.2119 7.93401C17.2215 8.03903 17.2155 8.1528 17.2224 8.2592C17.2288 8.35639 17.249 8.45357 17.254 8.548C17.2655 8.7631 17.2527 8.99248 17.2371 9.18502C17.2206 9.39505 17.2215 9.58759 17.2123 9.80315L17.127 10.3706C17.0991 10.5498 17.061 10.7391 17.0211 10.8985C16.9881 11.0302 17.017 11.0431 16.9643 11.1688C16.8735 11.3867 16.8336 11.6879 16.7428 11.9109C16.7039 12.0062 16.6933 12.0551 16.6617 12.1619C16.6186 12.3075 16.5228 12.4788 16.4614 12.6147L16.2055 13.1799C16.2046 13.1817 16.1794 13.2333 16.1776 13.236L16.1404 13.2761C16.1368 13.2798 16.1308 13.2853 16.1253 13.2886C16.1221 13.0923 16.1592 13.0891 16.178 12.9095C16.189 12.8031 16.2216 12.6759 16.2427 12.5626C16.3348 12.067 16.278 11.4521 16.2404 10.9537C16.2298 10.8151 16.1982 10.7396 16.178 10.6055C16.1436 10.3803 16.0785 10.1454 15.9965 9.94087C15.9818 9.90448 15.9529 9.8377 15.9364 9.79808C15.8378 9.55903 15.7173 9.30017 15.5806 9.08507C15.5256 8.99847 15.4633 8.92339 15.4147 8.84279C15.3083 8.66637 15.1767 8.51484 15.0525 8.36099L14.9072 8.19886C14.8856 8.18228 14.8916 8.18596 14.8668 8.17168C14.8288 8.14957 14.8769 8.17307 14.8141 8.14589C14.8191 8.29881 15.0323 8.64749 15.0938 8.811C15.1222 8.88654 15.1634 8.95103 15.1887 9.02058C15.2964 9.32182 15.3982 9.63411 15.461 9.99522C15.4784 10.0947 15.5055 10.1394 15.5206 10.2393C15.5641 10.5272 15.6205 10.7474 15.6311 11.0569C15.6439 11.4236 15.6678 11.9597 15.6045 12.284C15.544 12.593 15.5472 13.0716 15.4371 13.3586C15.3835 13.4981 15.3441 13.6824 15.2996 13.8408C15.2583 13.9878 14.9883 14.605 14.936 14.7289C14.8499 14.9325 14.4414 15.6008 14.2731 15.7698C14.2369 15.8062 14.2314 15.7998 14.2245 15.8583C14.3992 15.8689 15.003 15.6542 15.1708 15.557L15.3748 15.4497C15.4266 15.4239 15.4381 15.4184 15.4839 15.3815C15.532 15.3429 15.5453 15.3332 15.5944 15.3032C15.968 15.0743 16.3399 14.7132 16.6319 14.3935C16.7493 14.265 16.8593 14.1499 16.9602 14.0011L17.9096 12.6313C18.0747 12.3973 18.2521 12.0868 18.4208 11.8911L19.3222 10.8229L19.9998 10.2338C19.9324 10.1993 19.8191 10.2674 19.7444 10.3024L19.032 10.694C18.7422 10.8727 18.4286 11.1232 18.2099 11.3489C17.9028 11.6663 17.6075 11.9721 17.3402 12.3254L16.9455 12.8556C16.9267 12.8869 16.9221 12.8984 16.9056 12.9187C16.9019 12.9233 16.8896 12.9371 16.8854 12.9413C16.8593 12.968 16.8799 12.9509 16.8483 12.973C16.841 12.8072 16.9469 12.6313 17.0033 12.482C17.1174 12.1785 17.1454 11.9938 17.2215 11.7469C17.238 11.6939 17.2449 11.7216 17.2673 11.6345L17.4287 11.0012C17.5112 10.6364 17.5232 10.2463 17.5773 9.87086C17.6552 9.33057 17.63 8.5655 17.5736 8.00955C17.563 7.90545 17.553 7.83498 17.5475 7.72167C17.5406 7.57796 17.5085 7.55816 17.4966 7.4536C17.4713 7.23435 17.3347 6.62082 17.255 6.39421C17.1844 6.19292 17.1413 5.99854 17.0551 5.81292C17.0349 5.77008 17.0202 5.73738 17.0065 5.69869C16.8877 5.36751 16.7442 5.11556 16.5902 4.81939L15.9479 3.85949C15.6856 3.49423 15.053 2.84155 14.677 2.56473L14.4097 2.3616C14.1961 2.19532 13.9146 2.02259 13.7463 1.89593C13.651 1.82453 13.6381 1.82684 13.5409 1.77479C13.397 1.69787 13.2581 1.62187 13.1251 1.55508C12.9784 1.48138 12.8248 1.44223 12.6877 1.35518C12.5607 1.27457 12.3815 1.23588 12.2595 1.12625C12.1976 1.07006 12.1601 1.01801 12.1096 0.968728C11.9693 0.83331 11.7768 0.726449 11.5998 0.639394C11.3105 0.497067 10.925 0.528849 10.6072 0.551879L10.4798 0.5832C10.4303 0.59794 10.3867 0.599322 10.3496 0.61314L10.3491 0.614522Z" fill="#040404"/>
<path fill-rule="evenodd" clip-rule="evenodd" d="M12.0436 5.91379C12.0422 6.192 12.3104 6.70741 11.6997 7.23757C11.6287 7.29929 11.5214 7.37391 11.437 7.42688C11.4334 7.42918 11.4283 7.43241 11.4247 7.43471L11.3756 7.46741C11.3435 7.4886 11.3389 7.49275 11.2995 7.51486C11.2376 7.5494 11.2202 7.56184 11.1601 7.59869C10.7296 7.85939 9.97912 8.05515 9.48902 8.16477L7.16874 8.53418C7.02524 8.56688 6.91842 8.56043 6.76988 8.58669C6.64884 8.60787 6.5301 8.63781 6.40219 8.65946C6.26511 8.68295 6.13491 8.67835 5.99966 8.71289C5.87587 8.74421 5.81994 8.72349 5.71954 8.7608L5.67782 8.77784C5.63105 8.7935 5.67736 8.7783 5.62968 8.79074C5.22211 8.89714 4.65178 9.01275 4.2685 9.21541L3.6858 9.53093C3.44418 9.65115 3.23696 9.66082 3.58585 9.9662C3.66287 10.0335 3.74815 10.0892 3.86918 10.138C3.88706 10.1454 3.92511 10.1587 3.94345 10.1675C4.03331 10.2108 3.98242 10.2195 4.20248 10.2601L4.70175 10.4111C4.82095 10.4475 4.74026 10.3946 4.96674 10.4692C5.24503 10.5608 5.70441 10.4144 5.96344 10.238C6.07897 10.1592 6.12207 10.1325 6.22385 10.0463C7.03441 9.36281 7.17195 9.3103 8.34195 9.0215C8.41851 9.00261 8.44694 9.00123 8.51937 8.97682C8.60602 8.94826 8.62253 8.97129 8.79353 8.92017C8.83067 8.90911 8.86001 8.90543 8.89898 8.90036L9.63298 8.74191C9.70496 8.72809 9.76456 8.73362 9.83791 8.71612L10.6526 8.54247L11.2404 8.34164C11.4852 8.26196 11.6736 8.19057 11.8978 8.09476L12.3567 7.87183C12.5089 7.77648 12.8454 7.50657 12.9445 7.35457C13.1673 7.01187 13.2365 6.70695 12.9445 6.36703C12.8101 6.21088 12.6598 6.14548 12.5236 6.06855C12.3833 5.98933 12.2169 5.91425 12.045 5.91333L12.0436 5.91379Z" fill="#FDFDFD"/>
<path fill-rule="evenodd" clip-rule="evenodd" d="M2.15769 8.48577C2.19024 8.74095 2.74223 8.98184 2.99025 9.00487C3.29422 9.03343 3.71921 8.77227 3.99796 8.63593C4.09928 8.58618 4.19647 8.54473 4.30834 8.49314C4.34547 8.4761 4.43854 8.42589 4.45688 8.4199C4.5472 8.38858 4.5637 8.4001 4.64806 8.36187C4.93551 8.23198 5.84694 8.09472 6.18483 8.06478C6.25497 8.05833 6.29119 8.04129 6.35996 8.02562L7.59047 7.89573C7.66612 7.88284 7.69363 7.8681 7.80137 7.85981C7.94074 7.84921 8.07461 7.83125 8.20848 7.81467C8.27909 7.80592 8.33823 7.80269 8.41617 7.7944L8.95394 7.66912C9.02592 7.64793 9.06352 7.64977 9.14787 7.63365L10.5829 7.24075L11.067 7.02979C11.1307 6.99617 11.503 6.72672 11.5796 6.64335C11.9326 6.25874 11.8207 5.84834 11.4076 5.64936L11.2715 5.57981C11.2673 5.57796 11.2623 5.57474 11.2582 5.5729L11.1211 5.52545C11.117 5.52361 11.1119 5.52085 11.1078 5.51855C11.0312 5.48492 10.9716 5.48124 10.8799 5.48722C10.8286 6.02383 11.0372 6.08555 10.4453 6.51299C10.4031 6.54339 10.3775 6.56182 10.3385 6.5913L10.1084 6.72902C10.0634 6.75527 10.0231 6.77093 9.98411 6.7912C9.52381 7.02749 8.82741 7.23845 8.29834 7.30432L7.67896 7.41809C7.57351 7.4296 7.61156 7.42592 7.535 7.45355L5.0813 7.75018C4.73471 7.77966 3.83841 7.9312 3.52757 8.01872L2.41305 8.3849C2.2723 8.42773 2.26221 8.40885 2.15723 8.48623L2.15769 8.48577Z" fill="#FDFDFD"/>
<path fill-rule="evenodd" clip-rule="evenodd" d="M8.21927 4.44122C8.14775 4.51814 8.30684 4.68349 8.01755 4.93591C7.58934 5.30946 6.74485 5.44488 6.19241 5.58582L4.57632 5.76822C4.12611 5.8106 3.74421 5.86771 3.27795 5.87738C3.06294 5.88199 2.7741 5.86771 2.57009 5.8912C2.15197 5.93957 1.65087 5.92621 1.1892 5.91469C0.786665 5.90456 0.549181 5.75947 0.366254 6.09479C0.219088 6.36471 0.588151 6.58902 0.804545 6.66871C1.07825 6.76958 1.71918 6.58395 2.03644 6.53928C2.41238 6.48631 2.94373 6.40155 3.29859 6.37852L3.92943 6.30529C4.13711 6.27535 4.34984 6.26475 4.58824 6.25831L6.54496 6.06761C6.6527 6.03537 6.74119 6.04597 6.85351 6.02432C7.22303 5.95338 7.95015 5.81382 8.26649 5.68163C8.34535 5.64892 8.45034 5.61852 8.52644 5.59457C8.78364 5.51397 9.0335 5.41678 9.22056 5.21872C9.34342 5.08883 9.475 4.94097 9.27695 4.7618C9.14399 4.64158 8.71441 4.47208 8.53286 4.44859L8.29308 4.41772C8.19818 4.42141 8.24586 4.4122 8.21927 4.44075V4.44122Z" fill="#FDFDFD"/>
<path fill-rule="evenodd" clip-rule="evenodd" d="M1.1528 7.37938C1.14913 7.49361 1.2069 7.59448 1.2853 7.64653C1.31922 7.6691 1.38524 7.69582 1.42284 7.71838C1.69792 7.88098 1.98491 7.89756 2.30721 7.77596L2.60934 7.67232C2.93485 7.56685 3.63125 7.37109 3.94393 7.31121C4.00628 7.29923 4.06955 7.30292 4.13373 7.2914L5.50958 7.14263C5.69205 7.13526 5.75073 7.1196 5.8956 7.09841C6.02168 7.07998 6.17527 7.0915 6.30272 7.07123C6.36599 7.0611 6.38937 7.04544 6.47006 7.03623C6.81436 6.99615 7.02434 6.94687 7.41495 6.91601C7.52223 6.90772 7.48831 6.89943 7.569 6.87594L8.13291 6.77691C8.31171 6.72946 8.55377 6.70091 8.80685 6.61293C9.02049 6.53877 9.25339 6.47797 9.44732 6.39691C9.48445 6.38125 9.56927 6.34716 9.5954 6.33841C9.67518 6.31262 9.68893 6.32597 9.75541 6.29005C9.91862 6.20115 10.0126 6.1947 10.1671 6.06803C10.2134 6.0298 10.2487 6.01645 10.3065 5.98144C10.6334 5.78614 10.7228 5.47754 10.3606 5.19703C10.2483 5.10997 9.88607 4.96949 9.70406 4.98423C9.69168 5.45405 9.71827 5.56413 9.23872 5.87458L8.79447 6.10488C8.68627 6.15094 8.26907 6.30248 8.1517 6.31952C8.07147 6.33104 8.07606 6.33841 8.01875 6.35361C7.93714 6.37572 7.79685 6.4052 7.73404 6.41809C7.67398 6.43053 7.64877 6.42454 7.59284 6.44481C7.47776 6.4858 7.29392 6.52403 7.14813 6.53278L6.71946 6.59819C6.63373 6.61247 6.66445 6.62491 6.58788 6.64011L5.67325 6.75111C5.38396 6.7594 5.06074 6.80592 4.71185 6.8202C4.14061 6.84369 3.67618 6.94595 3.17417 6.98095L2.57679 7.07584C2.31546 7.11683 2.34664 7.06985 1.98858 7.16704L1.40266 7.28265C1.26192 7.31259 1.2555 7.32779 1.15234 7.37984L1.1528 7.37938Z" fill="#FDFDFD"/>
<path fill-rule="evenodd" clip-rule="evenodd" d="M2.23295 4.99575L1.20783 4.96996C1.02627 4.95752 1.05103 4.99897 0.934582 5.0828C0.860769 5.13577 0.762199 5.16433 0.758532 5.2348C0.752113 5.3518 0.880483 5.31725 1.02444 5.32324C1.61677 5.34627 2.27467 5.36792 2.86517 5.33383C3.14162 5.31771 3.4057 5.29008 3.68674 5.28225C3.82978 5.2781 3.95081 5.26843 4.09614 5.26244C4.32996 5.25231 4.40515 5.22329 4.50463 5.22099C4.77375 5.21454 5.05342 5.18137 5.32391 5.15282C5.39635 5.14545 5.42752 5.12794 5.49171 5.11965L6.09871 5.04181C6.33024 5.00266 6.57322 4.92205 6.8185 4.88014C7.01656 4.84605 7.61072 4.59779 7.76156 4.49461C7.84867 4.43519 7.96695 4.35228 7.87388 4.2164C7.76889 4.06256 7.06882 3.91609 6.88773 3.89076C6.47832 3.83364 7.06836 4.16251 6.01756 4.54942C5.98914 4.56002 5.97447 4.56094 5.93825 4.57199L4.75037 4.83362C4.5977 4.84329 4.53214 4.88566 4.38268 4.89119C4.3075 4.89396 4.23139 4.89211 4.15574 4.89718C4.0503 4.90409 4.04067 4.92343 3.96777 4.93403L2.23203 4.99621L2.23295 4.99575Z" fill="#FDFDFD"/>
<path fill-rule="evenodd" clip-rule="evenodd" d="M1.31201 4.4122C1.35923 4.44168 1.39362 4.43569 1.46606 4.44214L2.00796 4.45411C2.2537 4.45504 2.49943 4.45688 2.74517 4.45181L4.12927 4.3643C4.24251 4.34725 4.35712 4.34633 4.47266 4.33482C4.61203 4.321 4.68768 4.30027 4.79358 4.28691C5.10075 4.24776 5.65641 4.11096 5.96404 3.98614L6.24462 3.87237C6.31568 3.83967 6.40279 3.76643 6.38903 3.67155C6.35923 3.46704 5.30889 3.34405 5.09984 3.35327C5.09617 3.35879 5.09296 3.3611 5.09204 3.37077C5.08333 3.44308 5.0219 3.60107 4.94075 3.67569C4.82888 3.77887 4.55839 3.86684 4.41352 3.90277C4.23288 3.94791 3.82301 4.04602 3.65247 4.06398C3.54244 4.0755 3.47412 4.09945 3.39573 4.10958C3.2128 4.13307 2.97807 4.11741 2.80202 4.13722C2.60625 4.15933 2.42608 4.15979 2.21198 4.15841C2.07077 4.15748 1.77368 4.08793 1.6499 4.13399C1.60405 4.15104 1.51282 4.22888 1.47064 4.26296C1.27488 4.41865 1.32806 4.29751 1.31247 4.4122H1.31201Z" fill="#FDFDFD"/>
<path fill-rule="evenodd" clip-rule="evenodd" d="M14.7861 14.2001C14.8182 14.1624 14.8539 14.0891 14.8746 14.0486C14.9112 13.9767 14.9121 13.921 14.8791 13.8445C14.7026 13.4388 14.2753 13.2444 14.7741 12.6078C14.7971 12.5788 14.8081 12.5618 14.8269 12.536C14.8296 12.5323 14.8328 12.5272 14.8356 12.524C14.8383 12.5208 14.8415 12.5157 14.8443 12.5125C14.8466 12.5093 14.8507 12.5046 14.853 12.5014L15.1611 12.2393C15.1648 12.237 15.1693 12.2333 15.173 12.2306C15.1767 12.2283 15.1813 12.2246 15.1849 12.2218C15.328 12.12 15.3115 12.1491 15.3344 11.858C15.3468 11.7027 15.3463 11.4821 15.3371 11.3264C15.2477 11.3278 15.1212 11.4416 14.975 11.5355C14.6435 11.7483 14.2909 12.0947 14.2024 12.5111C14.1135 12.9312 14.2313 13.3425 14.4308 13.6769C14.5142 13.8169 14.6591 14.0956 14.7856 14.2001H14.7861Z" fill="#040404"/>
<path fill-rule="evenodd" clip-rule="evenodd" d="M2.08301 3.54815C2.11739 3.57394 2.07842 3.54953 2.13069 3.57302C2.13802 3.57624 2.18891 3.59559 2.18891 3.59559C2.47958 3.68218 3.60465 3.53479 3.81004 3.51268C3.90815 3.50209 3.94804 3.47215 4.05807 3.45741C4.14884 3.44543 4.22036 3.4201 4.30701 3.3943C4.46472 3.34732 4.64352 3.31047 4.73109 3.17782C4.71184 3.09169 4.71046 3.10689 4.63527 3.06866C4.32168 2.91067 3.56201 2.92264 3.2365 2.88349C2.79592 2.83052 3.14939 3.12162 2.37872 3.39016C2.32783 3.40812 2.11006 3.50992 2.08347 3.54769L2.08301 3.54815Z" fill="#FDFDFD"/>
<path fill-rule="evenodd" clip-rule="evenodd" d="M18.8286 7.92331C18.7172 7.927 18.4513 8.1117 18.3674 8.17618C18.2248 8.28673 18.1207 8.42537 18.0254 8.5525L17.9181 8.69114C17.9153 8.69437 17.9112 8.69897 17.9089 8.7022C17.8443 8.78695 17.9048 8.68515 17.831 8.88782C17.8163 8.92743 17.7998 8.99054 17.7897 9.03153C17.7682 9.11997 17.6673 9.58426 17.7384 9.65611C17.798 9.71599 18.1574 9.51609 18.2069 9.47509C18.6943 9.07575 18.8291 8.62482 18.8277 7.92285L18.8286 7.92331Z" fill="#040404"/>
<path fill-rule="evenodd" clip-rule="evenodd" d="M17.7107 7.7861C17.7111 8.16149 17.6263 8.48392 18.1659 8.01456C18.27 7.92382 18.4052 7.75386 18.4644 7.61844C18.5405 7.44295 18.5849 7.30476 18.5941 7.06709C18.5996 6.92062 18.6152 6.50515 18.5739 6.39092C18.3993 6.37803 18.0554 6.78796 17.9747 6.91601C17.8216 7.15875 17.7125 7.42729 17.7111 7.78656L17.7107 7.7861Z" fill="#040404"/>
<path fill-rule="evenodd" clip-rule="evenodd" d="M17.1205 5.53319C17.2608 5.49542 17.4717 5.08272 17.4946 4.93717C17.5652 4.48946 17.5794 4.56361 17.4391 4.07215C17.3873 3.89113 17.3259 3.75801 17.2269 3.60141C17.1476 3.47566 17.109 3.60187 17.0779 3.66958C16.9559 3.93304 16.845 4.14308 16.8395 4.45261C16.8344 4.72068 16.8376 4.84919 16.9091 5.07258C16.9605 5.23241 17.0316 5.4033 17.1205 5.53319Z" fill="#040404"/>
<path fill-rule="evenodd" clip-rule="evenodd" d="M17.5441 6.86446C17.6276 6.85157 17.6752 6.80735 17.755 6.73642C17.8068 6.69082 17.8605 6.62449 17.9063 6.55724C17.9907 6.43288 18.0677 6.24679 18.1163 6.10815C18.1718 5.9497 18.1626 5.68577 18.1525 5.4808C18.1456 5.3417 18.0966 5.20398 18.0562 5.07823L18.026 4.98427C18.0127 4.95525 18.0145 4.9594 18.0008 4.94189C17.9178 4.95111 17.9545 4.94097 17.9026 4.9921C17.8696 5.0248 17.8518 5.0529 17.8293 5.08468C17.5918 5.41632 17.6711 5.25326 17.5258 5.60471C17.3676 5.98655 17.4148 6.57889 17.5441 6.86446Z" fill="#040404"/>
<path fill-rule="evenodd" clip-rule="evenodd" d="M16.4648 4.27811L16.491 4.25554C16.5547 4.1846 16.6684 3.89765 16.6748 3.81658C16.7229 3.21917 16.6661 3.1183 16.4483 2.69731C16.3479 2.50339 16.3039 2.4951 16.2448 2.40851C16.2007 2.34402 16.2283 2.34586 16.137 2.34448C16.1201 2.38317 16.0843 2.52965 16.0705 2.57847C16.0352 2.70191 16.0279 2.6798 16.0054 2.84424C15.949 3.2574 15.9536 3.46652 16.1742 3.90225C16.2241 4.00128 16.3786 4.23665 16.4648 4.27811Z" fill="#040404"/>
<path fill-rule="evenodd" clip-rule="evenodd" d="M15.9641 8.18808C15.9068 8.68323 16.2942 9.36539 16.8242 9.60352C16.8746 9.62609 17.0039 9.70854 17.058 9.65741C17.1089 9.60951 17.0649 9.13923 17.0369 9.05908C16.8448 8.51465 16.5262 8.43865 16.1938 8.26316C16.1342 8.23184 16.0439 8.18255 15.9646 8.18762L15.9641 8.18808Z" fill="#040404"/>
<path fill-rule="evenodd" clip-rule="evenodd" d="M15.6046 3.17714C15.8041 2.90078 15.7261 2.34667 15.5753 2.07629C15.5317 1.99799 15.496 1.93074 15.4451 1.85705C15.3915 1.78012 15.3465 1.73084 15.2897 1.66267C15.2154 1.57377 15.0297 1.34716 14.9192 1.35545C14.8601 1.77736 14.8509 2.09057 15.0109 2.47518C15.088 2.6608 15.1182 2.7216 15.2599 2.86531C15.3511 2.95789 15.4735 3.16332 15.6046 3.17668V3.17714Z" fill="#040404"/>
<path fill-rule="evenodd" clip-rule="evenodd" d="M12.1362 0C12.1431 0.132655 12.2408 0.436194 12.2816 0.551806C12.4274 0.967273 12.7616 1.22567 13.1389 1.39886C13.182 1.41867 13.2155 1.43248 13.2508 1.45137C13.5423 1.60844 13.309 0.975103 13.2861 0.917527C13.16 0.599709 12.9 0.400267 12.6323 0.217406C12.5461 0.158909 12.5094 0.143248 12.4118 0.0898182C12.3196 0.0391515 12.2825 0.00322424 12.1367 0L12.1362 0Z" fill="#040404"/>
<path fill-rule="evenodd" clip-rule="evenodd" d="M13.3403 3.26007C13.4141 3.35587 13.5947 3.45076 13.7135 3.5134C14.1458 3.74186 14.4993 3.787 14.9816 3.63915C15.0508 3.61796 15.1737 3.59953 15.1448 3.49682C15.1356 3.46366 15.1398 3.48254 15.1228 3.45813L15.0834 3.41345C14.9133 3.22829 14.5974 3.06984 14.348 3.027C14.0528 2.97633 13.5475 3.07675 13.3398 3.26007H13.3403Z" fill="#040404"/>
<path fill-rule="evenodd" clip-rule="evenodd" d="M17.1065 8.34987C17.1272 8.10345 17.0804 8.02008 17.002 7.84459C16.8663 7.54197 16.6857 7.32917 16.3537 7.19928C16.2185 7.14631 15.97 7.08136 15.8077 7.08459C15.8036 7.20711 15.9278 7.43142 15.9783 7.55118C16.1062 7.85472 16.4166 8.13477 16.7219 8.26374L16.9571 8.35356C17.0071 8.36047 17.0575 8.35862 17.107 8.35033L17.1065 8.34987Z" fill="#040404"/>
<path fill-rule="evenodd" clip-rule="evenodd" d="M14.5271 2.19711C14.6482 1.85534 14.512 1.36295 14.3208 1.15476C14.1814 1.00322 13.8197 0.57209 13.5919 0.561035C13.5882 1.26254 13.7317 1.63609 14.2094 2.00872C14.2328 2.02668 14.2319 2.02576 14.2566 2.04419L14.3034 2.07965C14.3731 2.13308 14.4359 2.1879 14.5271 2.19711Z" fill="#040404"/>
<path fill-rule="evenodd" clip-rule="evenodd" d="M16.9024 7.03336C16.868 6.48708 16.515 6.17986 16.0203 6.03108C15.9401 6.00713 15.527 5.92975 15.4596 5.99515C15.411 6.0426 15.6141 6.33232 15.6494 6.38529C15.7223 6.49537 15.9873 6.74502 16.1271 6.84866C16.2748 6.95782 16.6686 7.04672 16.9029 7.03336H16.9024Z" fill="#040404"/>
<path fill-rule="evenodd" clip-rule="evenodd" d="M14.2139 4.06263C14.2395 4.17364 14.4335 4.27681 14.5165 4.35512C14.6609 4.491 14.7649 4.50435 14.9043 4.56746C14.9639 4.59463 14.9185 4.58726 14.9988 4.61306C15.2087 4.68077 15.7117 4.75492 15.9051 4.5974C15.8905 4.41039 15.5654 4.146 15.4577 4.08843C15.0611 3.87701 14.8186 3.86135 14.4394 3.96452C14.3665 3.98433 14.2726 4.01381 14.2139 4.06263Z" fill="#040404"/>
<path fill-rule="evenodd" clip-rule="evenodd" d="M12.3427 2.60189C12.384 2.67559 12.4037 2.67236 12.5376 2.72349C12.8305 2.83542 12.9699 2.90773 13.3316 2.90727C13.5164 2.90681 13.6645 2.89253 13.7988 2.84095L14.156 2.68388C14.1592 2.55076 14.007 2.50563 13.819 2.39923C13.515 2.22742 13.0538 2.20485 12.7476 2.34395C12.5009 2.45634 12.5857 2.42456 12.4376 2.52313C12.3739 2.5655 12.3826 2.52543 12.3423 2.60189H12.3427Z" fill="#040404"/>
<path fill-rule="evenodd" clip-rule="evenodd" d="M14.9297 5.00855C14.9673 5.17667 15.3969 5.54331 15.6188 5.65063C15.6926 5.6861 15.7169 5.70406 15.8008 5.73354C15.9365 5.78098 16.1203 5.81323 16.2808 5.81277C16.5898 5.81231 16.56 5.77776 16.4357 5.55437C16.2872 5.28721 16.1153 5.13061 15.8324 5.02605C15.6921 4.974 15.5064 4.94268 15.3386 4.94314C15.1965 4.9436 15.0186 4.93623 14.9297 5.00855Z" fill="#040404"/>
<path fill-rule="evenodd" clip-rule="evenodd" d="M13.0198 1.91807C13.0161 1.91162 13.0106 1.89504 13.0083 1.89873C13.0033 1.9061 13.0124 1.84207 12.8396 1.77344C12.7983 1.75686 12.7694 1.74765 12.7383 1.73383L12.7103 1.72047C12.4343 1.6021 12.0162 1.60901 11.7342 1.73337C11.7342 1.73337 11.6939 1.75271 11.6916 1.7541L11.4454 1.87938C11.2863 2.00236 11.2148 2.05487 11.2932 2.11475L11.6375 2.20595C11.9071 2.26813 12.1597 2.29116 12.4183 2.20595C12.5375 2.1668 12.5971 2.20088 12.8511 2.05671C12.9354 2.00881 12.9579 1.96091 13.0202 1.91761L13.0198 1.91807Z" fill="#040404"/>
<path fill-rule="evenodd" clip-rule="evenodd" d="M10.1594 13.1186C10.1094 13.0998 10.13 13.1099 10.1034 13.0689C10.081 13.0343 9.93106 12.6682 9.73438 12.6479C9.76372 12.7469 9.87467 12.8957 9.92464 13.0436C9.9769 13.1983 9.99662 13.3839 10.0599 13.5203C10.1287 13.5263 10.4945 13.5525 10.5413 13.4991C10.5871 13.4323 10.5935 13.1974 10.6224 13.085C10.6618 12.9326 10.7357 12.8114 10.7586 12.6944C10.643 12.728 10.5839 12.8367 10.5266 12.9303C10.456 13.0449 10.4354 13.2287 10.4028 13.2803C10.3538 13.1417 10.4312 13.0675 10.3056 12.7202C10.2754 12.6364 10.2483 12.5622 10.2084 12.489C10.1896 12.4544 10.1695 12.4176 10.1479 12.3858C10.103 12.3195 10.1163 12.3273 10.0512 12.3098C10.0521 12.5314 10.18 12.5866 10.1589 13.1196L10.1594 13.1186Z" fill="#242425"/>
<path fill-rule="evenodd" clip-rule="evenodd" d="M7.36272 11.2753C7.35767 11.2702 7.35217 11.255 7.34988 11.2587L7.27927 11.1491C7.2348 11.0689 7.18942 10.9897 7.11606 10.9248C7.07572 10.8893 7.02987 10.8676 7.01612 10.8432C6.95239 10.9473 7.08259 10.9786 7.14861 11.2025C7.18758 11.3342 7.22197 11.5521 7.27469 11.6484L7.70106 11.6562C7.75287 11.5466 7.75424 11.3476 7.79184 11.2246C7.82393 11.12 7.92112 10.9487 7.92387 10.8543C7.79963 10.8663 7.74462 10.992 7.69877 11.0772C7.63183 11.202 7.64054 11.3011 7.56031 11.4075C7.55069 11.167 7.56169 11.1237 7.49659 10.9174C7.46037 10.8032 7.38014 10.5917 7.29165 10.5378C7.24076 10.606 7.29211 10.7179 7.32696 10.8838C7.35721 11.0279 7.37051 11.0855 7.36317 11.2753H7.36272Z" fill="#242425"/>
<path fill-rule="evenodd" clip-rule="evenodd" d="M10.6084 11.6449C10.4722 11.5998 10.6034 11.5814 10.4282 11.5302C10.4379 11.668 10.4599 11.6735 10.48 11.7785C10.5089 11.925 10.4754 11.966 10.5415 12.0079C10.6056 12.0489 10.8959 11.9987 10.9128 11.9825C10.9275 11.9687 11.0247 11.5662 11.0783 11.4644C11.1168 11.3911 11.143 11.3672 11.1567 11.2668C11.0164 11.2976 10.9688 11.4059 10.8986 11.5316L10.8285 11.6412C10.812 11.2493 10.9298 11.1226 10.9215 10.9688C10.7913 11.0291 10.6863 11.2949 10.6616 11.4303L10.6345 11.5938C10.6203 11.6311 10.624 11.6228 10.6079 11.6445L10.6084 11.6449Z" fill="#343434"/>
<path fill-rule="evenodd" clip-rule="evenodd" d="M5.22442 9.70318C5.13273 9.5673 5.26752 9.29002 5.07955 9.27344C5.07084 9.28864 5.01536 9.45307 5.01261 9.46183C5.00207 9.50052 4.99932 9.53138 4.98877 9.56408L4.93605 9.65896C4.89295 9.56961 4.87095 9.54381 4.8008 9.54335C4.77971 9.64423 4.79851 9.66357 4.85948 9.81281C4.97823 10.103 4.83473 10.0643 5.29319 10.0634C5.32024 9.96204 5.32024 9.87176 5.34821 9.78379C5.37755 9.69075 5.42064 9.60599 5.40643 9.51433C5.33399 9.51572 5.32253 9.52769 5.27852 9.57099C5.23726 9.61198 5.22075 9.63547 5.22396 9.70364L5.22442 9.70318Z" fill="#ADADAD"/>
<path fill-rule="evenodd" clip-rule="evenodd" d="M13.5025 14.5852C13.5557 14.5221 13.6057 14.2793 13.6446 14.1693C13.6694 14.0993 13.6905 14.0177 13.723 13.9555C13.7606 13.8837 13.8156 13.8584 13.8266 13.7501C13.6689 13.7902 13.5135 14.0629 13.5052 14.161C13.5057 14.2466 13.4511 14.3991 13.3966 14.4475C13.2953 14.1329 13.4681 13.6672 13.4805 13.4797C13.3732 13.658 13.3475 13.6663 13.2723 13.9431C13.238 14.0702 13.1884 14.4493 13.2481 14.5751C13.353 14.622 13.3705 14.5681 13.5025 14.5852Z" fill="#141414"/>
<path fill-rule="evenodd" clip-rule="evenodd" d="M13.5026 14.5851C13.3701 14.568 13.3531 14.6219 13.2481 14.5749C13.1885 14.4492 13.2376 14.0701 13.2724 13.943C13.3481 13.6662 13.3733 13.6579 13.4806 13.4796C13.4686 13.6671 13.2953 14.1327 13.3967 14.4473C13.4512 14.399 13.5062 14.2465 13.5053 14.1608C13.3948 14.1811 13.476 14.1733 13.4439 14.1429C13.4402 13.9959 13.4352 13.8182 13.4746 13.6892C13.4897 13.6404 13.5131 13.5731 13.5333 13.527C13.5548 13.4778 13.5874 13.4045 13.5901 13.3474C13.4466 13.3585 13.3247 13.6146 13.2857 13.7228C13.222 13.8992 13.2156 14.2014 13.1642 14.3244C13.1037 14.2912 13.1642 14.3105 13.051 14.1415C12.9854 14.0438 13.0395 14.0019 12.8813 13.9582L13.0858 14.6509C13.1858 14.65 13.1729 14.6256 13.2898 14.6265C13.3201 14.6265 13.3627 14.6311 13.3939 14.6279C13.4008 14.627 13.4453 14.6182 13.4521 14.6155C13.5108 14.5934 13.4581 14.6288 13.5026 14.5851Z" fill="#5A5A5A"/>
<path fill-rule="evenodd" clip-rule="evenodd" d="M8.47882 10.2534C8.36971 10.224 8.43344 10.1613 8.31744 10.1116C8.31469 10.2189 8.40409 10.5441 8.44948 10.6118C8.50266 10.6238 8.51183 10.6201 8.55997 10.6247C8.83734 10.6528 8.68834 10.662 8.82588 10.2986C8.85935 10.2097 8.89373 10.177 8.90015 10.0761L8.75619 10.1839C8.73373 10.2111 8.72227 10.2309 8.70439 10.2539L8.64066 10.3235C8.63929 10.1926 8.65946 10.0125 8.61866 9.90845C8.56181 9.93608 8.60949 9.89877 8.56318 9.96879C8.48662 10.0844 8.55493 10.1553 8.47882 10.2534Z" fill="#343434"/>
<path fill-rule="evenodd" clip-rule="evenodd" d="M13.6945 11.8735C13.6702 11.8284 13.618 11.7164 13.6024 11.6496C13.4648 11.6225 13.4763 11.6128 13.5616 11.7957C13.6088 11.8961 13.6065 12.0002 13.6803 12.0863C13.8962 12.0914 13.9563 12.1126 13.9889 11.9242C14.0099 11.8039 14.0906 11.6777 14.097 11.5437C13.9783 11.5865 14.0031 11.6197 13.9389 11.7086C13.9114 11.7468 13.9306 11.7385 13.888 11.7556C13.8664 11.4723 13.9169 11.5147 13.926 11.3853C13.8096 11.3972 13.8082 11.4755 13.7683 11.5824C13.7041 11.7551 13.7252 11.8104 13.6945 11.8735Z" fill="#343434"/>
<path fill-rule="evenodd" clip-rule="evenodd" d="M12.8405 12.7985C12.7562 12.7617 12.8093 12.5945 12.6255 12.5291C12.6383 12.6193 12.6869 12.705 12.714 12.7856C12.7529 12.9017 12.7378 12.9275 12.8199 13.0104C12.8795 12.997 12.9941 12.9998 13.0477 12.9708C13.0748 12.9344 13.1761 12.5935 13.1807 12.5272C13.0427 12.5664 13.1701 12.5037 13.0509 12.6456C13.0188 12.6834 13.0569 12.6645 13.0092 12.6797L13.0106 12.208C12.9524 12.2269 12.989 12.2075 12.9551 12.2458C12.9519 12.2495 12.9203 12.3047 12.9184 12.3089C12.8795 12.407 12.8676 12.7432 12.84 12.7994L12.8405 12.7985Z" fill="#343434"/>
<path fill-rule="evenodd" clip-rule="evenodd" d="M5.22422 9.70308C5.21963 9.77723 5.23568 9.76572 5.16141 9.77171C5.10731 9.64734 5.18112 9.42809 5.09997 9.32031C5.08576 9.35762 5.03854 9.50778 5.03258 9.53818C5.01287 9.64135 5.02754 9.73624 4.99774 9.82375L4.87074 9.65379C4.86707 9.75697 4.93814 9.96516 4.99728 10.0361C5.31362 10.0481 5.24943 10.0329 5.29161 9.82928C5.30812 9.75052 5.33883 9.69939 5.34067 9.60358C5.27602 9.63214 5.31224 9.6128 5.27373 9.64596L5.22422 9.70308Z" fill="#242425"/>
<path fill-rule="evenodd" clip-rule="evenodd" d="M6.25554 9.26242C6.22299 9.21544 6.22437 9.23617 6.19457 9.19978C6.12947 9.11964 6.21245 9.15833 6.12259 9.1224C6.11296 9.23479 6.13909 9.35501 6.1854 9.44528C6.32981 9.46325 6.38666 9.47338 6.43297 9.3527C6.46048 9.28131 6.49532 9.14773 6.49394 9.08187C6.39125 9.1224 6.50403 9.11825 6.39079 9.14451L6.3885 8.92065C6.24913 8.93125 6.26288 9.12562 6.25554 9.26288V9.26242Z" fill="#5A5A5A"/>
</svg>
