<svg width="19" height="20" viewBox="0 0 19 20" fill="none" xmlns="http://www.w3.org/2000/svg">
<path fill-rule="evenodd" clip-rule="evenodd" d="M3.0779 7.1473L5.17435 7.16267C4.8146 8.29807 1.62499 11.6948 1.53785 11.8851L4.10301 11.8776C3.9124 12.5092 2.64221 13.9228 2.12158 14.586L0 17.0204L6.26054 17.0242L6.24954 19.9823L8.41882 19.9931C8.80773 18.9119 8.70958 19.2511 8.70811 17.994C8.70646 16.6069 6.62304 13.4643 10.2729 9.84082C10.4978 9.6176 10.964 9.3651 11.1471 9.15336C10.9911 8.75193 10.0082 7.71731 9.82642 7.15082L11.9381 7.15026C11.8783 7.04986 10.2504 5.23497 9.41017 3.8832C9.04016 3.28799 8.70646 2.70724 8.38029 2.0383C8.20051 1.66965 7.61531 0.164502 7.47956 0C6.9793 1.41549 6.32622 2.7152 5.60618 3.87283C5.15765 4.594 4.03091 6.12342 3.41049 6.73567C3.22539 6.91833 3.17366 6.92148 3.0779 7.1473Z" fill="#010101"/>
<path fill-rule="evenodd" clip-rule="evenodd" d="M9.53566 17.8605C9.67526 17.7264 10.0937 17.0339 10.2298 16.8189C10.5103 16.3759 10.7154 16.1688 10.6747 15.4852C10.6116 14.4299 10.1423 13.4286 10.5052 12.3682C10.5602 13.0272 10.5316 13.3523 10.7173 13.9734C10.8772 14.5092 11.0045 14.8834 11.0159 15.5058C11.2382 15.3795 11.5784 14.8856 11.7519 14.6563C11.9922 14.3384 12.3055 14.2024 12.3397 13.6087C12.3927 12.6893 11.9166 11.4098 12.3853 10.64C12.3576 11.816 12.6899 12.459 12.6803 13.5537C12.8625 13.446 12.9038 13.3716 13.0459 13.2037L14.1354 12.0476C14.4069 11.4842 14.0177 10.307 14.3576 9.48502C14.3704 10.2873 14.4937 10.9722 14.4829 11.7323C14.8674 11.5179 15.4557 10.8138 15.77 10.4363C15.916 10.2608 16.0672 10.1756 16.209 10.0045C16.7057 9.40462 17.1946 8.73624 17.649 7.98431C17.439 8.89518 16.0883 10.4235 15.694 11.0302C16.2845 10.962 17.1935 10.7995 17.7107 10.6204C16.9237 11.1804 16.3361 10.9987 15.5253 11.3823C15.1662 11.5522 14.9507 11.8384 14.7318 12.0852C14.5467 12.294 14.1221 12.6845 14.0146 12.8936C15.2015 12.6963 16.1787 12.8039 17.3357 12.5079C15.65 13.2645 15.6872 12.8208 14.3028 13.158C13.478 13.3588 13.5704 13.4016 13.1318 13.8554C12.9104 14.0846 12.4479 14.632 12.2817 14.9139C12.5739 14.8824 12.8652 14.772 13.1971 14.7402C13.5838 14.7031 13.9872 14.7179 14.3747 14.7405C15.3473 14.7974 15.7043 14.6596 16.5335 14.5677C14.3294 15.4647 12.3088 14.6292 11.4857 15.8908C10.9585 16.699 9.35441 19.1426 9.15555 19.9964C10.2883 20.0014 9.66848 20.0937 10.3307 18.9276C10.4298 18.7529 10.4659 18.694 10.5874 18.5843C10.966 18.4452 12.5714 19.231 15.1939 17.8813C17.6608 16.6117 18.8587 13.4957 18.9917 10.7179C19.042 9.6686 18.8605 6.52732 18.4105 5.7804C18.0937 6.05049 18.1568 6.29354 16.8993 7.06436C16.351 7.4004 15.637 7.70625 14.9993 7.96653C12.345 9.04968 9.76882 10.0652 8.90056 13.1574C8.40287 14.9299 8.89231 16.471 9.53621 17.8609L9.53566 17.8605Z" fill="#010101"/>
</svg>
