<svg width="20" height="19" viewBox="0 0 20 19" fill="none" xmlns="http://www.w3.org/2000/svg">
<path fill-rule="evenodd" clip-rule="evenodd" d="M1.63006 15.1065C4.65983 15.3326 7.58782 16.1449 9.31966 17.705C7.90311 17.0185 7.55108 16.6202 5.63557 16.082C4.105 15.6523 2.6632 15.4718 0.981863 15.3745C1.0913 15.126 3.29915 12.6428 3.45221 12.3104C2.88896 12.2962 3.07416 12.1899 2.37392 12.9984L0.788245 14.87C0.563251 15.1103 0.131629 15.5639 0 15.8252C2.27596 16.079 6.07331 17.2663 8.3179 18.1437C8.72503 18.3032 8.57121 18.2081 8.77018 18.5247C9.22094 19.2412 10.8372 19.0488 11.2046 18.5959C11.5068 18.2231 10.9459 18.4259 12.2178 17.9401C13.0229 17.6324 13.831 17.3569 14.6614 17.0994C15.5039 16.8381 16.3764 16.6113 17.2404 16.3867C18.0615 16.1726 19.286 16.0318 20 15.8027C19.56 15.1589 17.4057 12.8412 17.0743 12.3141L16.5409 12.3119C16.7207 12.6106 16.9059 12.7888 17.134 13.0673C17.4776 13.4857 18.8352 15.0489 19.0112 15.3813C17.5121 15.4179 15.8659 15.68 14.4976 16.055C12.3089 16.6554 11.2313 17.4819 10.8342 17.5972C11.9285 16.4765 14.4134 15.7002 16.1322 15.3678C16.8922 15.2211 17.6154 15.2068 18.3761 15.093C18.0768 14.6162 15.9838 12.1173 15.8361 11.8036C14.8335 11.7549 13.3565 12.0334 12.4879 12.3104C11.9668 12.4766 10.9612 12.9243 10.5426 13.2604C10.3207 13.4393 10.2342 13.5434 9.98393 13.6849C9.54848 13.4393 9.43445 13.0253 7.81664 12.4272C6.95722 12.109 5.97842 11.9174 4.99349 11.8358C4.13637 11.7646 4.29096 11.713 3.87158 12.246C3.43384 12.8022 1.88567 14.6311 1.63083 15.1065H1.63006Z" fill="#010101"/>
<path fill-rule="evenodd" clip-rule="evenodd" d="M9.83769 2.82972C9.82544 3.00789 9.76192 3.27889 9.70682 3.45183C9.50632 4.07693 7.01914 5.51579 6.6166 5.80775C6.13753 6.15512 5.4327 6.81615 5.16714 7.49591C4.76537 8.52377 5.06383 9.1908 5.4327 9.97236C5.12658 9.99183 4.79827 9.91921 4.67277 10.1693L4.64062 10.5346C4.68348 10.697 4.65899 10.6192 4.7294 10.7015C4.97582 10.8273 14.8312 10.8617 15.3171 10.709L15.3478 10.03L14.548 9.96937C16.4765 6.67616 11.9935 5.23505 10.6412 3.8995C10.2915 3.55364 10.2027 3.493 10.13 2.83496C10.6665 2.73464 10.9902 2.58641 11.1486 2.19638C9.71294 2.91431 9.39152 1.65662 9.60504 1.12509C9.71371 0.85484 9.93641 0.736557 10.1583 0.579346C9.56524 0.595067 9.10301 0.973123 9.02036 1.50764C8.96756 1.85276 9.06551 2.15071 9.22546 2.36707C9.44127 2.65753 9.58514 2.60887 9.83845 2.82972H9.83769Z" fill="#010101"/>
<path fill-rule="evenodd" clip-rule="evenodd" d="M2.50272 14.7652C4.07003 14.9808 5.1774 15.1687 6.58093 15.6628C7.25897 15.9016 9.34132 16.9332 9.74998 17.425L9.76529 14.5511C9.76529 14.2314 9.83263 14.1775 9.66427 13.9769C9.58009 13.8758 9.3704 13.6961 9.25867 13.6138C8.30283 12.9063 7.13041 12.55 5.896 12.3396C4.13125 12.0387 4.66312 11.9017 3.11189 13.9117C2.94582 14.1266 2.51879 14.5803 2.50195 14.7644L2.50272 14.7652Z" fill="#FEFEFE"/>
<path fill-rule="evenodd" clip-rule="evenodd" d="M10.2348 17.407C10.9565 17.0372 11.3613 16.3874 13.4383 15.6507C14.7998 15.1679 15.9875 14.9395 17.5318 14.7726L15.5536 12.2041C14.3628 12.0933 12.1641 12.7625 11.3039 13.2462C10.9978 13.4183 10.821 13.5763 10.5509 13.7762C10.1131 14.1003 10.2233 14.1527 10.2249 14.8055C10.2272 15.6732 10.2241 16.5394 10.2348 17.4078V17.407Z" fill="#FEFEFE"/>
<path fill-rule="evenodd" clip-rule="evenodd" d="M16.3442 11.9413C17.4401 11.9907 17.0873 11.802 17.8955 12.8321L18.6936 13.6736L18.5582 8.40176C18.637 7.81633 19.0908 8.25653 19.0763 7.06621L15.7771 7.06396C15.7779 7.8373 15.7312 7.69431 16.1407 8.08509C16.6105 8.53352 15.8751 11.0714 16.3442 11.9413Z" fill="#010101"/>
<path fill-rule="evenodd" clip-rule="evenodd" d="M5.02051 11.4951C5.78273 11.7384 7.07989 11.576 8.99847 12.6001C9.40254 12.8157 9.73773 13.1324 10.0385 13.2671C10.601 12.7588 11.3808 12.3396 12.329 12.0311C12.7996 11.8777 13.2718 11.7684 13.7861 11.6793C15.1575 11.442 14.9486 11.7107 14.9539 11.0736L5.02051 11.0557V11.4944V11.4951Z" fill="#010101"/>
<path fill-rule="evenodd" clip-rule="evenodd" d="M16.4156 4.03353L16.3529 6.79222L16.9766 6.78324C16.9797 5.70746 16.8029 5.16171 17.4327 4.91916C18.0756 5.22385 17.8751 5.96199 17.8743 6.78698L18.4965 6.79147L18.4605 4.03353L18.6028 3.97289C18.8393 3.84637 18.8531 3.82391 18.7697 3.55216C18.6342 3.49078 16.2404 3.39645 16.0988 3.57612C15.8646 3.87407 16.3468 3.98786 16.4156 4.03428V4.03353Z" fill="#010101"/>
<path fill-rule="evenodd" clip-rule="evenodd" d="M17.411 0C17.2396 0.580934 17.4768 0.684993 17.0414 1.1147C16.7047 1.4471 15.5598 2.06995 16.1315 3.0267C16.3312 3.36133 16.7039 3.24455 17.4332 3.24455C17.936 3.24455 18.5161 3.37331 18.7204 3.01322C19.2684 2.05124 18.2375 1.51522 17.8159 1.12444C17.3766 0.716436 17.6268 0.536017 17.411 0Z" fill="#010101"/>
</svg>
