<svg width="20" height="18" viewBox="0 0 20 18" fill="none" xmlns="http://www.w3.org/2000/svg">
<path fill-rule="evenodd" clip-rule="evenodd" d="M8.13732 1.28544C7.91796 1.37175 7.58468 1.40511 7.32244 1.47183C7.08524 1.53212 6.73695 1.67933 6.55388 1.71239C6.19401 1.77727 5.79971 1.06263 5.53028 0.841357C5.0856 0.905017 4.10518 1.5006 3.8711 1.75738C3.9534 2.19565 4.20813 2.55343 4.2291 3.01006C3.84669 3.23011 3.29562 3.72194 3.09378 4.11002L1.76287 3.73204C1.5191 4.13328 0.925462 4.85588 0.851296 5.4132C1.09476 5.52828 1.54319 5.97083 1.80074 6.19242L1.311 7.80318L0.0708408 8.06516C-0.0314884 9.17369 -0.00739252 8.83336 0.0458062 9.9373L1.31006 10.1971L1.75974 11.8061C1.41802 12.1017 1.23057 12.3808 0.850045 12.5911C0.922332 13.2304 1.48593 13.8242 1.73752 14.2723L3.07375 13.8533C3.19548 14.0957 3.70149 14.6114 3.93338 14.7858C4.10048 14.9116 4.10486 14.8776 4.25789 15.0732L3.86015 16.3167C4.33331 16.5025 4.93383 17.0347 5.5309 17.2101C5.6664 17.1186 6.26098 16.4281 6.34015 16.2947L8.11292 16.7283C8.26344 16.9655 8.36483 17.656 8.42554 17.9743L9.87974 18C9.93825 17.9979 10.0434 17.9954 10.0982 17.9868L10.336 17.91L10.6208 16.7354C10.6818 16.7155 12.3347 16.2989 12.4167 16.2895L13.2153 17.2202C13.8199 17.0623 14.4148 16.5254 14.872 16.3213L14.4911 15.0447C14.7818 14.7693 15.4909 14.2591 15.6746 13.894C16.1199 13.9273 16.5718 14.1973 17.0209 14.2716C17.2277 13.8557 17.8248 13.1665 17.9027 12.5871C17.6439 12.4323 17.1698 12.0531 16.9846 11.7442L17.4321 10.202L18.691 9.93454C18.7852 9.37599 18.7733 8.6283 18.6879 8.06394L17.4433 7.80196L16.983 6.1967C17.2994 5.92615 17.5713 5.6152 17.9062 5.41351C17.8602 5.1503 17.7456 4.88648 17.5707 4.73957C17.3948 4.85588 15.9716 6.26556 15.9741 6.42349C15.9751 6.48898 16.293 7.45122 16.3434 7.70677C16.6278 9.15135 16.4213 10.7079 15.7757 11.9618C15.0341 13.4028 13.7645 14.6007 12.2643 15.2473C9.69448 16.355 6.21936 15.7888 4.46411 13.8976C3.84638 13.2323 3.56912 13.1224 3.00146 11.9998C1.91339 9.84854 2.07925 7.33767 3.39451 5.33975C3.52312 5.14448 3.59948 5.03063 3.755 4.82925L5.06401 3.58238C7.41758 1.91041 10.4871 1.70015 12.9659 3.11595C13.3545 3.33784 13.665 3.61911 13.9904 3.82631L14.7014 3.14931C14.5068 2.86774 14.4501 3.00639 14.6047 2.55924C14.693 2.30399 14.82 2.02701 14.8732 1.75677C14.5919 1.49234 13.6722 0.913892 13.1934 0.82483C13.0729 0.997139 12.8989 1.17281 12.7465 1.35553C12.6289 1.49693 12.4364 1.75095 12.2089 1.70045C12.095 1.67536 10.6389 1.27351 10.6283 1.268C10.4912 1.00204 10.4875 0.587638 10.4008 0.266587C10.3157 -0.0489555 10.2155 0.00368585 9.37591 0.00276768C7.82408 0.000931354 8.57199 0.222821 8.13764 1.28514L8.13732 1.28544Z" fill="#010101"/>
<path fill-rule="evenodd" clip-rule="evenodd" d="M15.4523 1.30042C15.9405 1.89968 16.2281 1.9208 16.4621 2.31193L13.9574 4.88218C13.811 5.02205 13.6986 5.08693 13.5615 5.23353C13.0768 5.75291 12.6152 6.20985 12.1211 6.72371L10.6366 8.14992C10.4006 7.97211 10.2313 7.76124 10.0054 7.55281L8.07082 5.64426C7.71063 5.78749 5.36895 8.32713 4.72118 8.91873L3.57647 10.0202C3.10019 9.19418 3.6425 7.28593 4.12817 6.36593C5.76043 3.27356 9.98221 2.19931 13.2126 4.6303L13.6733 4.17611C12.9072 3.20347 10.7242 2.59595 9.2487 2.62105C6.7421 2.6639 4.70616 3.9836 3.59337 5.84289C0.475301 11.0507 6.15817 17.6205 12.4337 14.6744C14.4459 13.7296 15.8851 11.6334 16.0184 9.34109C16.0888 8.13432 15.8313 7.71869 15.6322 6.728C15.4269 6.82532 15.3894 6.91316 15.2423 7.06863C14.8828 7.44875 15.2639 7.42029 15.3234 8.72316C15.365 9.63245 15.2063 10.3495 14.9018 11.1073C13.5365 14.5055 8.94954 15.9644 5.60084 13.4009C5.20717 13.0994 4.51339 12.3793 4.25366 11.8679C4.36193 11.661 7.82266 8.19216 8.06831 8.05382C8.39001 8.31703 10.4316 10.4668 10.6988 10.5708L15.9705 5.31066C16.5544 4.70926 17.1312 4.14061 17.7586 3.55513C18.156 3.73937 18.4765 4.32394 18.8964 4.58347L20.0002 0.106812L15.4514 1.30073L15.4523 1.30042Z" fill="#010101"/>
<path fill-rule="evenodd" clip-rule="evenodd" d="M8.26686 14.1765C8.94937 14.313 10.0471 14.3635 10.6796 14.1376C10.6786 13.5454 10.6743 12.9532 10.6771 12.3607C10.6818 11.3672 10.6661 11.5888 10.1285 11.0694C9.80556 10.7576 9.52454 10.4996 9.20472 10.1849C8.85486 9.84094 8.57792 9.46082 8.26123 9.28821L8.26686 14.1762V14.1765Z" fill="#010101"/>
<path fill-rule="evenodd" clip-rule="evenodd" d="M11.5527 11.313L11.5634 13.8293C12.3798 13.5652 13.2992 12.7634 13.794 12.117C14.0606 11.769 13.9435 10.6748 13.9454 10.1417L13.947 8.38708C13.6869 8.51226 12.3404 9.95255 11.9642 10.3308C11.594 10.7033 11.554 10.5934 11.5527 11.313Z" fill="#010101"/>
<path fill-rule="evenodd" clip-rule="evenodd" d="M4.98633 12.1143C5.47951 12.7843 6.46525 13.6816 7.35367 13.8668L7.35961 9.78003C7.15089 9.87276 5.10055 11.9068 4.98633 12.1143Z" fill="#010101"/>
</svg>
